<svg xmlns="http://www.w3.org/2000/svg" viewBox="0 0 216 216" width="24" height="24" aria-hidden="true">
  <path fill="#1877F2" d="M204.1 0H11.9C5.3 0 0 5.3 0 11.9v192.3c0 6.6 5.3 11.9 11.9 11.9h103.5V132.6H89.5v-31h26V79.4c0-25.8 15.8-39.9 38.8-39.9 11 0 20.5.8 23.3 1.2v27h-16c-12.6 0-15 6-15 14.8v18.9h29.9l-3.9 31h-26v83.6h51.1c6.6 0 11.9-5.3 11.9-11.9V11.9C216 5.3 210.7 0 204.1 0z"></path>
  <path fill="#FFF" d="M149.6 132.6l3.9-31h-29.9V82.7c0-8.7 2.4-14.8 15-14.8h16V41.1c-2.8-.4-12.3-1.2-23.3-1.2-23 0-38.8 14.1-38.8 39.9v22.2h-26v31h26V216h31.1v-83.4h26z"></path>
</svg>
