<svg xmlns="http://www.w3.org/2000/svg" viewBox="0 0 533.5 544" width="24" height="24" aria-hidden="true">
  <path fill="#EA4335" d="M533.5 278.4c0-18.6-1.5-37-4.6-54.8H272v103.9h146.9c-6.3 34.2-25.4 63.1-54.1 82.5v68h87.4c51.1-47.1 81.3-116.5 81.3-199.6z"></path>
  <path fill="#34A853" d="M272 544c73.4 0 135.2-24.2 180.2-65.9l-87.4-68c-24.3 16.3-55.5 25.9-92.8 25.9-71.3 0-131.7-48.1-153.4-112.6H28v70.6C72.6 485.7 165.7 544 272 544z"></path>
  <path fill="#4A90E2" d="M118.6 322.4c-8.4-24.9-8.4-51.9 0-76.8V175H28c-33.7 67.4-33.7 147.6 0 215h90.6v-67.6z"></path>
  <path fill="#FBBC05" d="M272 107.6c39.9-.6 78.2 14.6 107.3 42.6l80-80C411.9 25.1 343.1-.2 272 0 165.7 0 72.6 58.3 28 175l90.6 70.6C140.3 155.9 200.7 107.6 272 107.6z"></path>
</svg>
